<svg width="16" height="16" viewBox="0 0 16 16" fill="none" xmlns="http://www.w3.org/2000/svg">
<path fill-rule="evenodd" clip-rule="evenodd" d="M0 7.11111C0 3.75911 -1.05964e-07 2.08267 1.04178 1.04178C2.08356 0.000888824 3.75911 0 7.11111 0H8.88889C12.2409 0 13.9173 -1.05964e-07 14.9582 1.04178C15.9991 2.08356 16 3.75911 16 7.11111V8.88889C16 12.2409 16 13.9173 14.9582 14.9582C13.9164 15.9991 12.2409 16 8.88889 16H7.11111C3.75911 16 2.08267 16 1.04178 14.9582C0.000888824 13.9164 0 12.2409 0 8.88889V7.11111ZM13.3333 4C13.3333 4.35362 13.1929 4.69276 12.9428 4.94281C12.6928 5.19286 12.3536 5.33333 12 5.33333C11.6464 5.33333 11.3072 5.19286 11.0572 4.94281C10.8071 4.69276 10.6667 4.35362 10.6667 4C10.6667 3.64638 10.8071 3.30724 11.0572 3.05719C11.3072 2.80714 11.6464 2.66667 12 2.66667C12.3536 2.66667 12.6928 2.80714 12.9428 3.05719C13.1929 3.30724 13.3333 3.64638 13.3333 4ZM9.77778 8.88889C9.77778 9.36038 9.59048 9.81257 9.25708 10.146C8.92368 10.4794 8.4715 10.6667 8 10.6667C7.5285 10.6667 7.07632 10.4794 6.74292 10.146C6.40952 9.81257 6.22222 9.36038 6.22222 8.88889C6.22222 8.41739 6.40952 7.96521 6.74292 7.63181C7.07632 7.29841 7.5285 7.11111 8 7.11111C8.4715 7.11111 8.92368 7.29841 9.25708 7.63181C9.59048 7.96521 9.77778 8.41739 9.77778 8.88889ZM11.5556 8.88889C11.5556 9.83188 11.181 10.7363 10.5142 11.403C9.84736 12.0698 8.94299 12.4444 8 12.4444C7.05701 12.4444 6.15264 12.0698 5.48584 11.403C4.81905 10.7363 4.44444 9.83188 4.44444 8.88889C4.44444 7.9459 4.81905 7.04153 5.48584 6.37473C6.15264 5.70794 7.05701 5.33333 8 5.33333C8.94299 5.33333 9.84736 5.70794 10.5142 6.37473C11.181 7.04153 11.5556 7.9459 11.5556 8.88889Z" fill="#ECF8FF"/>
</svg>
