<svg width="16" height="15" viewBox="0 0 16 15" fill="none" xmlns="http://www.w3.org/2000/svg">
<path fill-rule="evenodd" clip-rule="evenodd" d="M8.50999 4.296V5.993C8.86537 5.45168 9.35521 5.0119 9.93156 4.71671C10.5079 4.42152 11.151 4.28103 11.798 4.309C15.253 4.309 16 6.469 16 9.279V15H12.8V9.928C12.8 8.718 12.556 7.162 10.672 7.162C8.84499 7.162 8.53299 8.479 8.53299 9.838V15H5.34299V4.296H8.50999ZM3.19999 1.606C3.1996 1.923 3.10563 2.23284 2.92987 2.49665C2.75411 2.76047 2.50438 2.96653 2.21199 3.089C1.91972 3.21048 1.59791 3.24226 1.28753 3.18029C0.977139 3.11832 0.692207 2.9654 0.468992 2.741C0.245358 2.51646 0.093107 2.23081 0.0313847 1.91997C-0.0303376 1.60913 0.00122505 1.28698 0.122103 0.994027C0.242981 0.701077 0.447778 0.450407 0.710739 0.273539C0.973701 0.0966713 1.28309 0.0015024 1.59999 0C1.81061 -1.48089e-06 2.01916 0.0415816 2.21368 0.122364C2.40819 0.203147 2.58484 0.321539 2.73349 0.470748C2.88214 0.619958 2.99987 0.79705 3.07993 0.991864C3.15998 1.18668 3.20078 1.39538 3.19999 1.606Z" fill="#ECF8FF"/>
<path d="M3.2 4.309H0V15H3.2V4.309Z" fill="#ECF8FF"/>
</svg>
